<svg width="24" height="24" viewBox="0 0 24 24" fill="none" xmlns="http://www.w3.org/2000/svg">
<path d="M10.9134 14.0848C10.7223 13.894 10.4945 13.7439 10.2438 13.6436L2.31381 10.4636C2.21912 10.4256 2.13833 10.3595 2.08226 10.2743C2.0262 10.1891 1.99755 10.0887 2.00016 9.98673C2.00278 9.88474 2.03652 9.78599 2.09688 9.70374C2.15723 9.62149 2.2413 9.55966 2.33781 9.52657L21.3378 3.02657C21.4264 2.99456 21.5223 2.98846 21.6143 3.00896C21.7062 3.02946 21.7904 3.07573 21.857 3.14235C21.9236 3.20896 21.9699 3.29317 21.9904 3.38512C22.0109 3.47707 22.0048 3.57296 21.9728 3.66157L15.4728 22.6616C15.4397 22.7581 15.3779 22.8421 15.2956 22.9025C15.2134 22.9628 15.1146 22.9966 15.0126 22.9992C14.9107 23.0018 14.8103 22.9732 14.7251 22.9171C14.6398 22.861 14.5738 22.7803 14.5358 22.6856L11.3558 14.7536C11.255 14.5031 11.1045 14.2756 10.9134 14.0848ZM10.9134 14.0848L21.8538 3.14657" stroke="white" stroke-width="2" stroke-linecap="round" stroke-linejoin="round"/>
</svg>
